<svg width="49" height="55" viewBox="0 0 49 55" fill="none" xmlns="http://www.w3.org/2000/svg">
<path fill-rule="evenodd" clip-rule="evenodd" d="M16.7383 10.9463L20.0346 35.4408L42.8121 26.0596C44.4481 31.6229 43.8966 37.8233 40.7797 43.2434C34.7454 53.7362 21.3812 57.3313 10.9295 51.2734C0.477986 45.2153 -3.10296 31.7981 2.93124 21.3053C6.04829 15.8852 11.1213 12.3056 16.7383 10.9463Z" fill="#252528"/>
<path d="M25.0986 0.783691L26.7795 10.9089" stroke="#252528" stroke-width="4"/>
<path d="M39.3601 2.47119L34.8711 11.6939" stroke="#252528" stroke-width="4"/>
<path d="M48 12.5967L39.1309 17.7039" stroke="#252528" stroke-width="4"/>
<path d="M10.8104 32.8468C12.2029 32.8468 13.3318 31.7135 13.3318 30.3155C13.3318 28.9175 12.2029 27.7842 10.8104 27.7842C9.41791 27.7842 8.28906 28.9175 8.28906 30.3155C8.28906 31.7135 9.41791 32.8468 10.8104 32.8468Z" fill="white"/>
<path d="M10.5453 33.0158C11.9378 33.0158 13.0666 31.8824 13.0666 30.4844C13.0666 29.0864 11.9378 27.9531 10.5453 27.9531C9.15278 27.9531 8.02393 29.0864 8.02393 30.4844C8.02393 31.8824 9.15278 33.0158 10.5453 33.0158Z" fill="white"/>
</svg>
