<svg width="24" height="27" viewBox="0 0 24 27" fill="none" xmlns="http://www.w3.org/2000/svg">
<path fill-rule="evenodd" clip-rule="evenodd" d="M8.1448 5.94531L9.74874 17.8642L20.8321 13.2994C21.6282 16.0065 21.3599 19.0235 19.8432 21.6609C16.9069 26.7667 10.404 28.516 5.31822 25.5683C0.232586 22.6204 -1.50989 16.0917 1.42633 10.986C2.94307 8.34856 5.41155 6.60672 8.1448 5.94531Z" fill="white"/>
<path d="M12.2129 1L13.0308 5.9269" stroke="white" stroke-width="2"/>
<path d="M19.1526 1.82129L16.9683 6.30902" stroke="white" stroke-width="2"/>
<path d="M23.3567 6.74805L19.041 9.23317" stroke="white" stroke-width="2"/>
<path d="M5.26057 16.6021C5.93816 16.6021 6.48746 16.0507 6.48746 15.3704C6.48746 14.6901 5.93816 14.1387 5.26057 14.1387C4.58299 14.1387 4.03369 14.6901 4.03369 15.3704C4.03369 16.0507 4.58299 16.6021 5.26057 16.6021Z" fill="white"/>
<path d="M5.13118 16.6842C5.80877 16.6842 6.35806 16.1327 6.35806 15.4524C6.35806 14.7722 5.80877 14.2207 5.13118 14.2207C4.45359 14.2207 3.9043 14.7722 3.9043 15.4524C3.9043 16.1327 4.45359 16.6842 5.13118 16.6842Z" fill="#252528"/>
</svg>
